HIERARCHY
ROOT root
{
	OFFSET	0	13.1	24.9
	CHANNELS 6  Xposition Yposition Zposition Xrotation Yrotation Zrotation
	JOINT spine_1
	{
		OFFSET	0	9.99999	0
		CHANNELS 3  Xrotation Yrotation Zrotation
		JOINT spine_2
		{
			OFFSET	0	112	-10
			CHANNELS 3  Xrotation Yrotation Zrotation
			JOINT spine_3
			{
				OFFSET	0	206.5	19.3
				CHANNELS 3  Xrotation Yrotation Zrotation
				JOINT spine_4
				{
					OFFSET	0	110.4	14.6
					CHANNELS 3  Xrotation Yrotation Zrotation
					JOINT neck_1
					{
						OFFSET	0	71.8	-50.3
						CHANNELS 3  Xrotation Yrotation Zrotation
						JOINT neck_2
						{
							OFFSET	0	86.2	-25.8
							CHANNELS 3  Xrotation Yrotation Zrotation
							JOINT head_ee
							{
								OFFSET	0	179.8	-8.7
								CHANNELS 3  Xrotation Yrotation Zrotation
								End Site
								{
									OFFSET	1	0	0
								}
							}
						}
					}
					JOINT left_clavicle
					{
						OFFSET	-43.2	22.4	-70.8
						CHANNELS 3  Xrotation Yrotation Zrotation
						JOINT left_shoulder
						{
							OFFSET	-93.9	-5.79999	48.7
							CHANNELS 3  Xrotation Yrotation Zrotation
							JOINT left_elbow
							{
								OFFSET	-291.4	-30.8	15.2
								CHANNELS 3  Xrotation Yrotation Zrotation
								JOINT left_lowarm_twist
								{
									OFFSET	-110.7	-3.89999	13.6
									CHANNELS 3  Xrotation Yrotation Zrotation
									JOINT left_hand
									{
										OFFSET	-110.7	-3.89999	13.6
										CHANNELS 3  Xrotation Yrotation Zrotation
										JOINT left_ee
										{
											OFFSET	-80.8	-5.10001	12.1
											CHANNELS 3  Xrotation Yrotation Zrotation
											End Site
											{
												OFFSET	1	0	0
											}
										}
									}
								}
							}
						}
					}
					JOINT right_clavicle
					{
						OFFSET	43.2	22.4	-70.8
						CHANNELS 3  Xrotation Yrotation Zrotation
						JOINT right_shoulder
						{
							OFFSET	93.9	-5.79999	48.7
							CHANNELS 3  Xrotation Yrotation Zrotation
							JOINT right_elbow
							{
								OFFSET	291.4	-30.8	15.2
								CHANNELS 3  Xrotation Yrotation Zrotation
								JOINT right_lowarm_twist
								{
									OFFSET	110.7	-3.89999	13.6
									CHANNELS 3  Xrotation Yrotation Zrotation
									JOINT right_hand
									{
										OFFSET	110.7	-3.89999	13.6
										CHANNELS 3  Xrotation Yrotation Zrotation
										JOINT right_ee
										{
											OFFSET	80.8	-5.10001	12.1
											CHANNELS 3  Xrotation Yrotation Zrotation
											End Site
											{
												OFFSET	1	0	0
											}
										}
									}
								}
							}
						}
					}
				}
			}
		}
	}
	JOINT left_hip
	{
		OFFSET	-82.8	-127.5	0.300001
		CHANNELS 3  Xrotation Yrotation Zrotation
		JOINT left_knee
		{
			OFFSET	-28.2	-396.7	2.2
			CHANNELS 3  Xrotation Yrotation Zrotation
			JOINT left_ankle
			{
				OFFSET	-11.7	-411.3	35.4
				CHANNELS 3  Xrotation Yrotation Zrotation
				JOINT left_toes
				{
					OFFSET	0	-60	-88.6
					CHANNELS 3  Xrotation Yrotation Zrotation
					JOINT left_foot_ee
					{
						OFFSET	-22.5	-16.5	-42.2
						CHANNELS 3  Xrotation Yrotation Zrotation
						End Site
						{
							OFFSET	1	0	0
						}
					}
				}
			}
		}
	}
	JOINT right_hip
	{
		OFFSET	82.8	-127.5	0.300001
		CHANNELS 3  Xrotation Yrotation Zrotation
		JOINT right_knee
		{
			OFFSET	28.2	-396.7	2.2
			CHANNELS 3  Xrotation Yrotation Zrotation
			JOINT right_ankle
			{
				OFFSET	11.7	-411.3	35.4
				CHANNELS 3  Xrotation Yrotation Zrotation
				JOINT right_toes
				{
					OFFSET	0	-60	-88.6
					CHANNELS 3  Xrotation Yrotation Zrotation
					JOINT right_foot_ee
					{
						OFFSET	22.5	-16.5	-42.2
						CHANNELS 3  Xrotation Yrotation Zrotation
						End Site
						{
							OFFSET	1	0	0
						}
					}
				}
			}
		}
	}
}
MOTION
Frames: 12
Frame Time: 0.02
1290.0 663.621 -1583.47 -3.83271 56.274 10.8167 2.1546 -0.378299 -1.16953 2.15531 -0.303118 -1.19123 2.16162 -0.0923143 -1.22572 2.15964 -0.284721 -1.19576 -5.98325 13.8076 1.58499 -5.91835 24.3961 4.20122 -0.0 0.0 -0.0 -6.89651 23.3238 -6.87009 -23.8633 -28.1213 78.2534 0.99294 -26.1908 0.230986 0.0329133 0.00115844 -0.00404379 4.17745 12.4816 33.6379 -0.0 0.0 -0.0 10.1165 6.95402 -20.0961 -7.36476 28.6841 -55.3679 1.6525 39.3006 -0.590098 -37.701 2.71004 -3.8907 -6.86535 2.90063 55.887 0.0 0.0 0.0 26.4908 -3.90039 -18.7044 5.91526 -0.288378 -0.861255 15.317 13.6406 -2.14638 -30.5316 0.0 0.0 -0.0 0.0 -0.0 -13.6467 43.0869 -7.17631 -9.18 -0.267736 -1.3819 42.7756 -23.805 5.3862 12.1735 -0.0 -0.0 0.0 0.0 0.0 
1258.67 662.58 -1591.94 -2.56181 56.8834 10.1294 2.04989 -0.512261 -1.35057 2.0508 -0.425291 -1.38042 2.06113 -0.177414 -1.4335 2.05848 -0.401561 -1.38751 -6.20869 15.2714 3.13596 -6.14046 26.027 6.08482 -0.0 0.0 -0.0 -7.2255 22.2329 -7.69818 -22.1316 -28.6958 78.9408 1.01251 -26.6363 0.239693 -0.538245 -0.0192752 0.0660355 4.17757 11.3464 33.3007 -0.0 0.0 -0.0 10.0054 6.70947 -19.8546 -9.14264 27.8802 -55.7264 1.62742 38.872 -0.574289 -38.3922 2.78182 -3.94281 -6.99513 2.4349 57.0861 0.0 0.0 0.0 25.1102 -3.55324 -20.3196 4.93513 -0.234457 -0.720633 16.0408 13.5082 -2.24082 -30.7938 0.0 0.0 -0.0 0.0 -0.0 -14.7115 40.3096 -7.69346 -10.3904 -0.286406 -1.56669 42.5884 -23.3569 5.35521 12.7098 -0.0 -0.0 0.0 0.0 0.0 
1243.23 657.847 -1591.09 -1.32013 57.0266 9.6325 1.91064 -0.546846 -1.62367 1.91199 -0.442434 -1.65517 1.92492 -0.142214 -1.70735 1.92108 -0.410036 -1.66349 -5.9726 15.4553 0.0182009 -5.87732 28.5989 2.93925 -0.0 0.0 -0.0 -6.68938 21.3268 -7.19691 -20.1237 -29.5551 79.6686 0.992093 -26.1715 0.230612 -1.3313 -0.0488058 0.163001 4.09359 10.5264 32.3964 -0.0 0.0 -0.0 9.73967 6.50598 -19.2819 -10.8283 27.2598 -55.3133 1.60799 38.5361 -0.562136 -39.0783 2.85368 -3.99368 -7.21644 1.91714 59.4721 0.0 0.0 0.0 22.2959 -2.91218 -21.5737 2.56613 -0.114148 -0.377181 16.8494 11.7056 -2.3394 -29.7935 0.0 0.0 -0.0 0.0 -0.0 -13.966 37.7298 -8.86966 -10.8108 -0.291976 -1.63096 42.1414 -23.4406 5.3177 12.7506 -0.0 -0.0 0.0 0.0 0.0 
1207.78 656.199 -1593.62 1.7605 55.7745 8.24187 1.65524 -0.635732 -2.23731 1.65789 -0.492116 -2.27321 1.67781 -0.0716242 -2.32473 1.67054 -0.437777 -2.28429 -4.36495 15.1731 -3.23876 -4.0155 30.2732 -0.877561 -0.0 0.0 -0.0 -6.23395 21.176 -6.56769 -18.7965 -30.1783 80.2274 0.977901 -25.8462 0.224389 -1.86353 -0.0693764 0.227846 3.70605 10.6804 29.5032 -0.0 0.0 -0.0 9.44174 6.28085 -18.6436 -13.9421 26.384 -54.5096 1.55868 37.6699 -0.531708 -40.5722 3.01222 -4.10145 -7.37009 1.5307 61.2059 0.0 0.0 0.0 20.3357 -2.51397 -21.9593 -1.53263 0.0600652 0.227528 15.4848 9.93048 -2.15798 -28.7644 0.0 0.0 -0.0 0.0 -0.0 -13.4901 35.8358 -9.89345 -12.4376 -0.309084 -1.87997 42.426 -23.3552 5.34064 12.831 -0.0 -0.0 0.0 0.0 0.0 
1185.36 670.626 -1591.22 3.44115 55.6936 8.87958 1.22377 -0.64463 -2.60268 1.22741 -0.477767 -2.63839 1.25034 0.0287775 -2.68112 1.24053 -0.394865 -2.65206 -3.41305 15.0364 -4.19199 -2.9113 30.6383 -2.16992 -0.0 0.0 -0.0 -5.89938 20.4292 -6.28513 -16.014 -30.4116 79.834 0.975317 -25.7867 0.223264 -2.4794 -0.0939317 0.302642 3.21822 10.6721 25.9281 -0.0 0.0 -0.0 9.23296 6.12125 -18.1986 -16.3915 25.6235 -53.8203 1.47527 36.1573 -0.48161 -41.0772 3.06645 -4.13695 -7.46102 1.68684 62.6678 0.0 0.0 0.0 18.4284 -1.48275 -23.2368 -2.17093 0.0832788 0.322736 14.8566 8.79159 -2.07432 -30.0849 0.0 0.0 -0.0 0.0 -0.0 -12.6594 34.3464 -10.9342 -16.9159 -0.319607 -2.56682 43.0302 -24.9756 5.4484 15.3039 -0.0 -0.0 0.0 0.0 0.0 
1174.46 689.649 -1591.51 6.48336 56.1262 8.11788 0.587955 -0.66889 -2.91317 0.592547 -0.482244 -2.94979 0.619357 0.116107 -2.98666 0.607088 -0.356825 -2.96756 -3.27885 15.8966 -3.57415 -2.75167 31.7259 -1.44002 -0.0 0.0 -0.0 -5.72553 19.5962 -6.25568 -10.6295 -30.5675 80.1012 1.01977 -26.8008 0.242958 -3.70473 -0.145175 0.450663 2.64475 12.1438 22.3573 -0.0 0.0 -0.0 9.04431 5.94463 -17.7981 -20.4978 24.662 -53.4189 1.54631 37.4494 -0.524167 -43.0847 3.28503 -4.2733 -7.55272 1.5307 63.8853 0.0 0.0 0.0 16.4614 -0.381192 -24.6197 -1.79129 0.0696004 0.266079 11.7432 8.18816 -1.65892 -31.1094 0.0 0.0 -0.0 0.0 -0.0 -6.7942 33.7069 -13.255 -27.5084 -0.131408 -4.17905 42.8382 -26.1488 5.4735 17.7224 -0.0 -0.0 0.0 0.0 0.0 
1157.82 683.025 -1592.6 7.30143 56.3253 8.01139 -0.0783522 -0.52702 -3.16493 -0.0728386 -0.324664 -3.19201 -0.051644 0.356544 -3.18861 -0.0657988 -0.151245 -3.2049 -6.1023 14.9473 -0.484213 -6.01755 28.0378 2.36709 -0.0 0.0 -0.0 -6.31498 20.964 -6.75065 -5.88017 -32.0168 79.6205 1.21225 -30.9843 0.33602 -6.08863 -0.253899 0.735388 1.70381 13.9434 16.6158 -0.0 0.0 -0.0 8.73121 6.70838 -17.1324 -21.9401 25.1844 -53.6541 1.59708 38.3464 -0.555357 -44.6394 3.45753 -4.3736 -7.7421 1.18337 66.5576 0.0 0.0 0.0 15.396 1.04999 -24.8689 -0.919306 0.0367602 0.136288 9.5977 7.69559 -1.36612 -32.003 0.0 0.0 -0.0 0.0 -0.0 -2.82142 32.718 -15.9742 -34.9246 0.175837 -5.27486 42.2198 -25.2239 5.3837 20.1865 -0.0 -0.0 0.0 0.0 0.0 
1148.94 689.628 -1589.03 8.36111 56.7104 7.58248 -0.398702 -0.447144 -3.2628 -0.392811 -0.238732 -3.28461 -0.37547 0.478694 -3.25833 -0.390281 -0.0416156 -3.293 -7.57192 13.6803 1.79516 -7.60814 24.2439 4.71348 -0.0 0.0 -0.0 -6.65502 21.7125 -7.02701 -1.14826 -32.7017 78.9503 1.35594 -33.8872 0.413111 -8.39335 -0.37021 1.00619 0.789428 15.9346 11.4327 -0.0 0.0 -0.0 8.43009 7.89177 -16.4797 -22.963 25.5777 -53.7534 1.48765 36.3856 -0.488931 -45.7513 3.58252 -4.44245 -7.86152 0.953138 68.3894 0.0 0.0 0.0 14.7236 2.12622 -24.7977 -0.295885 0.0120705 0.0438022 8.09308 7.34825 -1.15781 -32.6469 0.0 0.0 -0.0 0.0 -0.0 0.317568 32.3669 -17.9296 -40.1543 0.476612 -6.01987 41.3249 -24.4043 5.27365 21.8832 -0.0 -0.0 0.0 0.0 0.0 
1138.86 697.303 -1589.45 10.2415 56.9831 5.97546 -0.690069 -0.392248 -3.19973 -0.684393 -0.187954 -3.21818 -0.669962 0.530293 -3.17979 -0.68407 0.021721 -3.22359 -8.59526 12.3029 3.57638 -8.64225 20.5635 6.3392 -0.0 0.0 -0.0 -6.7913 22.8016 -6.88534 2.4061 -33.3011 78.8934 1.47087 -36.0758 0.479015 -10.9439 -0.511542 1.30023 0.00966149 17.3239 7.10675 -0.0 0.0 -0.0 8.21813 8.69022 -16.0134 -23.8408 25.9257 -54.8 1.40113 34.7617 -0.438591 -48.0747 3.84789 -4.57844 -7.97746 0.720884 70.3121 0.0 0.0 0.0 13.405 3.34042 -24.1472 -0.159473 0.00653353 0.0236005 7.03892 7.36543 -1.0104 -33.1095 0.0 0.0 -0.0 0.0 -0.0 5.92569 31.1537 -20.9653 -45.6854 0.867502 -6.77512 39.7043 -23.9514 5.10657 22.6188 -0.0 -0.0 0.0 0.0 0.0 
1122.89 704.461 -1585.72 8.96373 56.6685 7.46273 -0.876326 -0.374416 -3.30059 -0.870281 -0.16375 -3.3177 -0.856443 0.586693 -3.26957 -0.871354 0.0632588 -3.32113 -9.72727 10.9876 5.19483 -9.74501 17.1534 7.76435 -0.0 0.0 -0.0 -6.73213 22.6065 -6.8614 6.50046 -33.4367 78.0293 1.52758 -37.1129 0.51282 -11.668 -0.554041 1.38255 -0.62725 17.7006 3.37355 -0.0 0.0 -0.0 8.07082 9.27291 -15.6852 -24.5183 26.3488 -55.2055 1.24563 31.6752 -0.353372 -50.3496 4.11282 -4.70106 -8.02833 0.998056 71.7699 0.0 0.0 0.0 13.0496 4.55965 -24.2514 -0.0610127 0.00250739 0.00902722 6.29796 7.45114 -0.906105 -33.4571 0.0 0.0 -0.0 0.0 -0.0 8.45951 32.8317 -22.0741 -47.1781 0.985384 -6.97229 39.8406 -24.2375 5.12841 23.6166 -0.0 -0.0 0.0 0.0 0.0 
1109.18 706.6 -1583.0 9.26742 55.8774 7.48599 -1.03731 -0.360482 -3.35833 -1.03105 -0.146177 -3.37444 -1.01771 0.625983 -3.31915 -1.03307 0.0942419 -3.37628 -10.2965 10.0711 6.28095 -10.2682 14.7832 8.65098 -0.0 0.0 -0.0 -6.6955 22.4979 -6.84239 9.1853 -33.3699 77.2046 1.54786 -37.4771 0.52511 -12.1924 -0.58547 1.44183 -1.09788 17.984 0.645435 -0.0 0.0 -0.0 7.5946 9.58324 -14.6632 -25.9937 26.3028 -55.1588 1.11165 28.8398 -0.285844 -51.953 4.30234 -4.78113 -8.05763 1.19373 72.7132 0.0 0.0 0.0 12.8358 5.35945 -24.2279 0.00830859 -0.000342125 -0.00122913 5.77615 7.47304 -0.832344 -33.7254 0.0 0.0 -0.0 0.0 -0.0 10.3803 33.9621 -22.9559 -47.8442 1.03964 -7.05928 39.9302 -24.405 5.14221 24.315 -0.0 -0.0 0.0 0.0 0.0 
1091.72 712.074 -1585.01 12.0241 55.1743 5.04243 -1.22623 -0.345365 -3.47071 -1.21954 -0.123951 -3.48563 -1.20669 0.68433 -3.42012 -1.22299 0.13594 -3.48518 -12.2991 9.35288 7.64933 -12.2284 12.8786 9.98752 -0.0 0.0 -0.0 -5.32911 22.4501 -4.89338 8.99667 -32.095 74.2502 1.44271 -35.5503 0.462534 -15.5475 -0.799305 1.81413 -1.26215 15.808 -1.32361 -0.0 0.0 -0.0 7.72484 10.0787 -14.9235 -27.001 26.8609 -55.9275 0.858554 23.04 -0.17499 -52.9284 4.41871 -4.82723 -8.18852 0.388453 74.5521 0.0 0.0 0.0 14.4992 5.22227 -24.3327 -9.25259 0.268966 1.39297 14.2724 7.48301 -1.9969 -35.7635 0.0 0.0 -0.0 0.0 -0.0 12.1146 33.0644 -24.6725 -51.2698 1.33454 -7.49654 39.5718 -23.1255 5.06954 26.549 -0.0 -0.0 0.0 0.0 0.0 
